<svg xmlns="http://www.w3.org/2000/svg" version="1.1" xmlns:xlink="http://www.w3.org/1999/xlink" viewBox="0 0 200 200"><rect width="200" height="200" fill="url('#gradient')"></rect><defs><linearGradient id="gradient" gradientTransform="rotate(174 0.5 0.5)"><stop offset="0%" stop-color="#515151"></stop><stop offset="100%" stop-color="#00cda8"></stop></linearGradient></defs><g><g fill="#2c313e" transform="matrix(1.4394658232296609,0,0,1.4394658232296609,20.04299551312799,107.80890686234237)" stroke="#73515f" stroke-width="0"><path d="M9.98 0L9.15-2.66L4.45-2.66L3.63 0L-0.03 0L5.19-14.22L8.41-14.22L13.66 0L9.98 0ZM6.80-10.23L5.27-5.30L8.33-5.30L6.80-10.23ZM18.02-15L18.02 0L14.72 0L14.72-15L18.02-15ZM19.66-5.24L19.66-5.36Q19.66-6.96 20.19-8.19Q20.71-9.42 21.70-10.09Q22.69-10.76 23.99-10.76L23.99-10.76Q25.64-10.76 26.57-9.65L26.57-9.65L26.69-10.57L29.68-10.57L29.68-0.40Q29.68 1.00 29.03 2.03Q28.38 3.06 27.15 3.61Q25.92 4.16 24.30 4.16L24.30 4.16Q23.13 4.16 22.05 3.72Q20.96 3.28 20.38 2.58L20.38 2.58L21.76 0.64Q22.68 1.73 24.18 1.73L24.18 1.73Q26.37 1.73 26.37-0.52L26.37-0.52L26.37-0.85Q25.42 0.20 23.97 0.20L23.97 0.20Q22.04 0.20 20.85-1.28Q19.66-2.76 19.66-5.24L19.66-5.24ZM22.96-5.16L22.96-5.16Q22.96-3.86 23.45-3.10Q23.94-2.34 24.81-2.34L24.81-2.34Q25.88-2.34 26.37-3.06L26.37-3.06L26.37-7.50Q25.89-8.22 24.83-8.22L24.83-8.22Q23.96-8.22 23.46-7.44Q22.96-6.65 22.96-5.16ZM31.14-4.82L31.13-5.38Q31.13-6.96 31.75-8.20Q32.36-9.43 33.52-10.10Q34.67-10.76 36.22-10.76L36.22-10.76Q38.59-10.76 39.96-9.29Q41.33-7.82 41.33-5.29L41.33-5.29L41.33-5.18Q41.33-2.71 39.96-1.25Q38.58 0.20 36.24 0.20L36.24 0.20Q33.98 0.20 32.62-1.16Q31.25-2.51 31.14-4.82L31.14-4.82ZM34.43-5.77L34.42-5.18Q34.42-3.71 34.88-3.03Q35.34-2.34 36.24-2.34L36.24-2.34Q38.00-2.34 38.04-5.05L38.04-5.05L38.04-5.38Q38.04-8.22 36.22-8.22L36.22-8.22Q34.57-8.22 34.43-5.77L34.43-5.77ZM54.09-14.22L54.09-11.57L49.82-11.57L49.82 0L46.40 0L46.40-11.57L42.21-11.57L42.21-14.22L54.09-14.22ZM61.20-10.64L61.14-7.59L60.06-7.67Q58.51-7.67 58.07-6.69L58.07-6.69L58.07 0L54.78 0L54.78-10.57L57.86-10.57L57.97-9.21Q58.80-10.76 60.28-10.76L60.28-10.76Q60.81-10.76 61.20-10.64L61.20-10.64ZM71.28 0L67.99 0Q67.81-0.32 67.68-0.95L67.68-0.95Q66.77 0.20 65.14 0.20L65.14 0.20Q63.64 0.20 62.60-0.71Q61.55-1.61 61.55-2.98L61.55-2.98Q61.55-4.70 62.82-5.58Q64.09-6.46 66.51-6.46L66.51-6.46L67.53-6.46L67.53-7.01Q67.53-8.47 66.27-8.47L66.27-8.47Q65.10-8.47 65.10-7.31L65.10-7.31L61.81-7.31Q61.81-8.85 63.11-9.80Q64.41-10.76 66.44-10.76Q68.46-10.76 69.63-9.78Q70.80-8.79 70.83-7.07L70.83-7.07L70.83-2.39Q70.85-0.94 71.28-0.17L71.28-0.17L71.28 0ZM65.93-2.15L65.93-2.15Q66.54-2.15 66.95-2.41Q67.35-2.68 67.53-3.01L67.53-3.01L67.53-4.70L66.57-4.70Q64.85-4.70 64.85-3.15L64.85-3.15Q64.85-2.71 65.16-2.43Q65.46-2.15 65.93-2.15ZM77.12-2.34L77.12-2.34Q77.81-2.34 78.19-2.72Q78.57-3.10 78.56-3.77L78.56-3.77L81.65-3.77Q81.65-2.03 80.41-0.92Q79.16 0.20 77.20 0.20L77.20 0.20Q74.89 0.20 73.56-1.25Q72.24-2.70 72.24-5.25L72.24-5.25L72.24-5.39Q72.24-6.99 72.83-8.22Q73.42-9.44 74.53-10.10Q75.64-10.76 77.17-10.76L77.17-10.76Q79.23-10.76 80.44-9.62Q81.65-8.48 81.65-6.52L81.65-6.52L78.56-6.52Q78.56-7.34 78.16-7.78Q77.76-8.22 77.09-8.22L77.09-8.22Q75.81-8.22 75.60-6.59L75.60-6.59Q75.53-6.07 75.53-5.17L75.53-5.17Q75.53-3.57 75.91-2.96Q76.29-2.34 77.12-2.34ZM89.59 0L87.29-3.94L86.36-3.01L86.36 0L83.07 0L83.07-15.01L86.36-15.01L86.36-7.04L86.69-7.48L89.17-10.57L93.12-10.57L89.41-6.22L93.36 0L89.59 0ZM98.90 0.20L98.90 0.20Q96.46 0.20 94.96-1.25Q93.46-2.71 93.46-5.03L93.46-5.03L93.46-5.30Q93.46-6.92 94.06-8.16Q94.66-9.40 95.81-10.08Q96.96-10.76 98.54-10.76L98.54-10.76Q100.77-10.76 102.06-9.38Q103.35-8.00 103.35-5.53L103.35-5.53L103.35-4.25L96.81-4.25Q96.98-3.36 97.58-2.85Q98.17-2.34 99.12-2.34L99.12-2.34Q100.68-2.34 101.56-3.44L101.56-3.44L103.07-1.66Q102.45-0.81 101.32-0.31Q100.20 0.20 98.90 0.20ZM98.53-8.22L98.53-8.22Q97.08-8.22 96.81-6.31L96.81-6.31L100.13-6.31L100.13-6.56Q100.15-7.35 99.73-7.79Q99.31-8.22 98.53-8.22ZM111.12-10.64L111.06-7.59L109.98-7.67Q108.43-7.67 107.99-6.69L107.99-6.69L107.99 0L104.70 0L104.70-10.57L107.78-10.57L107.89-9.21Q108.72-10.76 110.21-10.76L110.21-10.76Q110.73-10.76 111.12-10.64L111.12-10.64Z"></path></g></g></svg>